<svg xmlns="http://www.w3.org/2000/svg" xmlns:xlink="http://www.w3.org/1999/xlink" id="Group_1370" data-name="Group 1370" width="354.924" height="244.436" viewBox="0 0 354.924 244.436"><defs><clipPath id="clip-path"><rect id="Rectangle_478" data-name="Rectangle 478" width="354.924" height="244.436" fill="none"></rect></clipPath></defs><g id="Group_1369" data-name="Group 1369" clip-path="url(#clip-path)"><path id="Path_53946" data-name="Path 53946" d="M436.431,107.829a5.584,5.584,0,0,1-9.526-.721,5.767,5.767,0,0,1-.18-4.6c1.477-3.883,6.212-5.179,8.209-1.9a5.319,5.319,0,0,1,1.5,7.224" transform="translate(-130.749 -30.281)"></path><path id="Path_53947" data-name="Path 53947" d="M59.7,68.118a5.649,5.649,0,0,1-8.708,3.376A5.537,5.537,0,1,1,59.7,68.118" transform="translate(-14.945 -18.83)"></path><path id="Path_53948" data-name="Path 53948" d="M229.441,37.273a3.916,3.916,0,0,0,7.1-3.3l-14.749-31.7a3.916,3.916,0,0,0-7.1,3.3Z" transform="translate(-65.731 0)"></path><path id="Path_53949" data-name="Path 53949" d="M270.315,39.859a3.916,3.916,0,0,0,3.757-2.825L282.313,8.68A3.915,3.915,0,0,0,274.794,6.5l-8.241,28.355a3.917,3.917,0,0,0,3.762,5.006" transform="translate(-81.699 -1.127)"></path><path id="Path_53950" data-name="Path 53950" d="M307.4,57.9,325.665,46.52a3.916,3.916,0,1,0-4.14-6.648L303.262,51.256A3.916,3.916,0,0,0,307.4,57.9" transform="translate(-92.44 -12.046)"></path><path id="Path_53951" data-name="Path 53951" d="M346.913,126.06c-.049-.049-.1-.1-.159-.146a4.663,4.663,0,0,0-.361-.548C335.952,112.554,319.8,68.6,316.719,51.424c1.567-.832,3.064-1.629,4.43-2.371a3.915,3.915,0,0,0-3.716-6.892c-18.109,9.762-33.106,16.806-36.475,17.118a3.924,3.924,0,0,0-3.536,4.271c.159,1.65.021,2.288.159,3.189-37.758,17.673-60.02-5.345-82.976-4.174-34.063-16.709-65.5,5.533-96.475-.069-12.182-2.2-23.531-9.81-35.241-16.411,1.123-2.052.125-6.157-3.335-6.42-6.372-3.9-28.121-17.333-31.012-19.066a3.9,3.9,0,0,0-4.153,6.6c-.534,15.059-8.452,55.618-16.813,70.822-5.526,7-10.837,16.972-5.11,25.209.007.007.007.014.014.021a11.041,11.041,0,0,1,1.761,3.619,3.7,3.7,0,0,0,.624,1.3c5.664,7.814,11.585,15.974,20.321,19.926a55.015,55.015,0,0,1,5.311,2.85,76.138,76.138,0,0,0,9.18,4.721c1.255-.693,2.191-3.2,2.51-4.6,5,3.217,9.984,7.71,14.983,10.927-7.841,8.292,3.64,34.347,20.113,30.055-2.288,15.024,11.669,25.05,24.53,21.729-.18,13.79,13.423,24.273,26.866,19.7,4.812,17.714,27.337,22.547,36.614,10.372,8.3,1.636,17.326,3.494,30.853-2.683,11.405,4.957,23.954-3.321,25.625-13.707,11.731,5.713,24.973-3.529,26.2-13.839,12.722,3.522,23.781-8.112,22.838-19.517,15.482-8.777,31.386-17.915,46.882-26.707a.322.322,0,0,1,.471.236,5.27,5.27,0,0,0,2.974,3.46c4.867-1.193,17.326-6.358,21.59-8.992.1-.25.194-.478.277-.693,5.394-2.524,10.31-7.585,11.544-13,1.678-7.363-2.482-17.1-7.633-22.339M33.971,138.609l-8.23-4.839a4.563,4.563,0,0,0-.749-.354,18.946,18.946,0,0,1-6.3-3.4,61.545,61.545,0,0,1-7.439-7.7A27.969,27.969,0,0,1,8.1,117.969c-.985-1.886-.624-3.432.014-5.422a29.062,29.062,0,0,1,2.149-4.992A11.026,11.026,0,0,1,12.36,105a4.4,4.4,0,0,0,.534-.645c9.478-14.3,17.34-53.989,19.025-72.507C40.3,37,50.174,43.1,54.819,45.947,49.432,75.191,43.5,110.765,33.971,138.609m52.214,36.718c-.028.049-.021.1-.049.159-1.595,1.622-3.127,3.113-4.6,4.354-4.6,1.518-10.421-.555-12.75-4.819-2.44-4.472-.8-10.864,3.383-13.742.062-.007.125.021.187.014,7-.908,11.072,4.1,12.161,5.657,2.073,2.967,2.746,6.337,1.671,8.375m20.279,26.908A13.95,13.95,0,0,1,87.89,184.659c1.692-1.539,3.37-3.189,5.11-4.971,8.4-8.611,14.476-13.963,22.276-10.039,4.4,2.219,6.746,5.782,7.973,11.488-3.2,3.6-13.721,15.288-16.785,21.1M129.247,221.8a10.285,10.285,0,0,1-16.009-5.449,29.212,29.212,0,0,1-.367-9.907c15.884-19.6,17.867-22.041,18.019-22.269-.014.007-.069.062-.021-.021a18.642,18.642,0,0,1,8.354,1.033c3.661,1.511,7.183,5.956,6.989,14.726-.361.52-12.043,18.179-16.965,21.888m27.837-1.664c-2.309,5.775-3.716,13.326-1.7,17.624a10.391,10.391,0,0,1-6.85.18,20.383,20.383,0,0,1-12.459-11.585A179.32,179.32,0,0,0,151.558,206a7.572,7.572,0,0,1,7.425,6.711c.118,2.177-.77,4.6-1.9,7.425m5.949,6.482c1.109-3.529,2.863-6.566,3.543-10.878,1.886,1.449,18.116,14.282,21.756,17.194-10.282,4.964-19.76,1.643-25.3-6.316m85.777-25.944c-9.4-1.255-39.588-33.771-45.648-41.114a3.915,3.915,0,0,0-6.039,4.985c8.438,10.219,34.749,36.5,41.925,40.739a15.222,15.222,0,0,1-19.642,10.635c-6.073-2.066-8.743-5.6-34.839-32.094a3.915,3.915,0,0,0-5.581,5.491c24.439,24.779,27.227,28.2,32.926,31.636-1.588,7.1-6.815,9.6-10.837,9.561-7.28-.125-37.467-30.554-47-32.149.229-7.744-3.876-17.118-11.863-20.418a26.6,26.6,0,0,0-11.883-1.588,23.624,23.624,0,0,0-11.53-13.7c-10.053-5.075-18.373-.451-25.091,5.436-3.744-11.932-17.555-17.271-24.821-13.95A205.174,205.174,0,0,0,42.839,136.82c8.146-25.389,13.617-56.138,18.435-82.643C72.679,60.749,83.945,67.89,96.744,70.2,124.8,75.26,154.331,59.21,180.5,65.7c-27.753,9.693-55.444,29.653-60.728,58.481-1.837,10.067,1.816,19.822,12.14,21.146,16.307,4.742,31.927-17.908,39.741-23.587a23.036,23.036,0,0,1,18.061-4.409c18.394,12.424,62.586,59.119,63.064,59.646,11.412,12.556,5.283,24.918-3.973,23.7m15.773-19.725c-2.7-6.226-6.587-10.122-12.133-15.516-17.915-17.465-42.174-45.981-65.8-59.2a12.465,12.465,0,0,1,1.865-.09,4.046,4.046,0,0,0,4.007-3.82,3.917,3.917,0,0,0-3.813-4.014c-7.682.076-19.191,4.777-24.751,10.615C154.934,118.4,149.63,132.805,138.246,137c-8.472,3.127-12.292-3.044-10.767-11.412,5.637-30.721,44.428-51.271,64.27-54.848,20.994-3.82,45.26,22.242,87.337,3.917,5.567,27.414,18.248,56.29,35.137,80.016a169.927,169.927,0,0,0-49.641,26.277m73.852-32.995a.129.129,0,0,0-.049.014c-.007,0-.021.007-.028.007a63.428,63.428,0,0,0-14.684,6.427c-19.295-25.549-33.508-58.273-38.236-88.245,5.845-1.914,15.322-6.476,24.044-10.954,4.2,19.621,20.023,61.83,30.839,75.107l2.364,4.645.936,2.42a8,8,0,0,1-5.186,10.58" transform="translate(0 -6.144)"></path><path id="Path_53952" data-name="Path 53952" d="M35.234,37.08c-1.685,18.518-9.547,58.2-19.025,72.507a4.4,4.4,0,0,1-.534.645,11.026,11.026,0,0,0-2.094,2.551,29.062,29.062,0,0,0-2.149,4.992c-.638,1.99-1,3.536-.014,5.422a27.969,27.969,0,0,0,3.148,4.347,61.545,61.545,0,0,0,7.439,7.7,18.946,18.946,0,0,0,6.3,3.4,4.563,4.563,0,0,1,.749.354l8.23,4.839c9.526-27.844,15.461-63.418,20.848-92.662-4.645-2.843-14.518-8.944-22.9-14.1m4.125,26.956a5.537,5.537,0,1,1,8.708-3.376,5.649,5.649,0,0,1-8.708,3.376" transform="translate(-3.315 -11.372)" fill="#fff"></path><path id="Path_53953" data-name="Path 53953" d="M116.106,237.764c-.028.049-.021.1-.049.159-1.595,1.622-3.127,3.113-4.6,4.354-4.6,1.518-10.421-.555-12.75-4.819-2.44-4.472-.8-10.864,3.383-13.742.062-.007.125.021.187.014,7-.908,11.072,4.1,12.161,5.657,2.073,2.967,2.746,6.337,1.671,8.375" transform="translate(-29.921 -68.581)" fill="#fff"></path><path id="Path_53954" data-name="Path 53954" d="M161.748,246.739c-3.2,3.6-13.721,15.288-16.785,21.1a13.95,13.95,0,0,1-18.574-17.576c1.692-1.539,3.37-3.189,5.11-4.971,8.4-8.611,14.476-13.963,22.276-10.039,4.4,2.219,6.746,5.782,7.973,11.488" transform="translate(-38.499 -71.746)" fill="#fff"></path><path id="Path_53955" data-name="Path 53955" d="M196.031,272.481c-.361.52-12.043,18.179-16.965,21.888a10.285,10.285,0,0,1-16.009-5.449,29.213,29.213,0,0,1-.367-9.907c15.884-19.6,17.867-22.041,18.019-22.269-.014.007-.069.062-.021-.021a18.642,18.642,0,0,1,8.354,1.033c3.661,1.511,7.183,5.956,6.989,14.726" transform="translate(-49.819 -78.713)" fill="#fff"></path><path id="Path_53956" data-name="Path 53956" d="M217.275,302.393c-2.309,5.775-3.716,13.326-1.7,17.624a10.391,10.391,0,0,1-6.85.18,20.383,20.383,0,0,1-12.459-11.585,179.32,179.32,0,0,0,15.482-20.356,7.572,7.572,0,0,1,7.425,6.711c.118,2.177-.77,4.6-1.9,7.425" transform="translate(-60.192 -88.401)" fill="#fff"></path><path id="Path_53957" data-name="Path 53957" d="M260.447,319.5c-10.282,4.964-19.759,1.643-25.3-6.316,1.109-3.529,2.863-6.566,3.543-10.878,1.886,1.449,18.116,14.282,21.756,17.194" transform="translate(-72.116 -92.714)" fill="#fff"></path><path id="Path_53958" data-name="Path 53958" d="M267.758,215.778c-9.4-1.255-39.588-33.771-45.648-41.114a3.915,3.915,0,0,0-6.039,4.985c8.438,10.219,34.749,36.5,41.925,40.739a15.222,15.222,0,0,1-19.642,10.635c-6.073-2.066-8.743-5.6-34.839-32.094a3.915,3.915,0,0,0-5.581,5.491c24.439,24.779,27.227,28.2,32.926,31.636-1.588,7.1-6.815,9.6-10.837,9.561-7.28-.125-37.467-30.554-47-32.149.229-7.744-3.876-17.118-11.863-20.418a26.6,26.6,0,0,0-11.883-1.588,23.624,23.624,0,0,0-11.53-13.7c-10.053-5.075-18.373-.451-25.091,5.436-3.744-11.932-17.555-17.271-24.821-13.95a205.174,205.174,0,0,0-26.048-17.326C69.934,126.534,75.4,95.785,80.223,69.28c11.405,6.573,22.671,13.714,35.47,16.023,28.059,5.061,57.587-10.989,83.76-4.5-27.753,9.693-55.444,29.653-60.728,58.481-1.837,10.067,1.816,19.822,12.14,21.146,16.307,4.742,31.927-17.908,39.741-23.587a23.036,23.036,0,0,1,18.061-4.409c18.394,12.424,62.586,59.119,63.064,59.646,11.412,12.556,5.283,24.918-3.973,23.7" transform="translate(-18.949 -21.247)" fill="#fff"></path><path id="Path_53959" data-name="Path 53959" d="M469.881,152.932l-.936-2.42-2.364-4.645c-10.816-13.277-26.637-55.486-30.839-75.107-8.722,4.479-18.2,9.041-24.044,10.954,4.728,29.972,18.941,62.7,38.236,88.245a63.428,63.428,0,0,1,14.684-6.427c.007,0,.021-.007.028-.007a.129.129,0,0,1,.049-.014,8,8,0,0,0,5.186-10.58M431.943,99.248a5.584,5.584,0,0,1-9.526-.721,5.767,5.767,0,0,1-.18-4.6c1.477-3.883,6.212-5.179,8.209-1.9a5.319,5.319,0,0,1,1.5,7.224" transform="translate(-126.261 -21.701)" fill="#fff"></path><path id="Path_53960" data-name="Path 53960" d="M370.467,176.931a169.927,169.927,0,0,0-49.641,26.277c-2.7-6.226-6.587-10.122-12.133-15.516-17.915-17.465-42.174-45.981-65.8-59.2a12.465,12.465,0,0,1,1.865-.09,4.046,4.046,0,0,0,4.007-3.82,3.917,3.917,0,0,0-3.813-4.014c-7.682.076-19.191,4.777-24.751,10.615-9.027,9.471-14.331,23.878-25.715,28.072-8.472,3.127-12.292-3.044-10.767-11.412,5.637-30.721,44.428-51.271,64.27-54.848,20.994-3.82,45.26,22.242,87.337,3.917,5.567,27.414,18.248,56.29,35.137,80.016" transform="translate(-56.244 -28.402)" fill="#fff"></path></g></svg>