<svg xmlns="http://www.w3.org/2000/svg" width="371.731" height="313.381" viewBox="0 0 371.731 313.381"><g id="Group_1366" data-name="Group 1366" transform="translate(5.584 0)"><g id="Group_1365" data-name="Group 1365"><path id="Path_53736" data-name="Path 53736" d="M169.479,153.819a3.543,3.543,0,0,1-4.965.755c-20.807-15.888-46.531-14.99-64.5-11.443h-.047a3.543,3.543,0,0,1-4.162-2.789,3.581,3.581,0,0,1,2.789-4.163c19.388-3.828,47.288-4.729,70.222,12.768a3.519,3.519,0,0,1,.662,4.872" transform="translate(2.37 3.314)" fill="#1c1a19"></path><path id="Path_53737" data-name="Path 53737" d="M164.7,175.111a3.611,3.611,0,0,1-4.871,1.323,85.98,85.98,0,0,0-65.115-8.086,3.492,3.492,0,0,1-4.351-2.41v-.048a3.478,3.478,0,0,1,2.412-4.35,93.251,93.251,0,0,1,70.553,8.7l.047.048a3.544,3.544,0,0,1,1.324,4.824" transform="translate(2.233 3.916)" fill="#1c1a19"></path><path id="Path_53738" data-name="Path 53738" d="M261.917,165.329a3.554,3.554,0,0,1-4.871,1.275c-16.645-9.125-37.546-6.526-55.894,7-.047,0-.047.046-.094.046a3.542,3.542,0,0,1-4.114-5.767c20.618-15.182,44.356-17.971,63.507-7.471.047,0,.1.046.142.046a3.612,3.612,0,0,1,1.324,4.872" transform="translate(4.838 3.815)" fill="#1c1a19"></path><path id="Path_53739" data-name="Path 53739" d="M174.694,127.145a3.493,3.493,0,0,1-4.918.757c-20.855-15.89-46.626-14.99-64.548-11.443a3.59,3.59,0,0,1-4.209-2.791,3.551,3.551,0,0,1,2.838-4.16c19.34-3.831,47.288-4.729,70.222,12.768a3.55,3.55,0,0,1,.615,4.87" transform="translate(2.499 2.654)" fill="#1c1a19"></path><path id="Path_53740" data-name="Path 53740" d="M262.009,142.9a3.6,3.6,0,0,1-4.871,1.277c-16.645-9.127-37.546-6.525-55.894,7-.047,0-.047,0-.094.049a3.544,3.544,0,0,1-4.114-5.77c20.618-15.179,44.356-17.968,63.554-7.471a.168.168,0,0,0,.1.048,3.611,3.611,0,0,1,1.324,4.87" transform="translate(4.84 3.26)" fill="#1c1a19"></path><path id="Path_53741" data-name="Path 53741" d="M261.225,120.2a3.489,3.489,0,0,1-4.822,1.277c-16.646-9.127-37.594-6.526-55.894,7a.166.166,0,0,0-.1.046,3.542,3.542,0,1,1-4.113-5.767c20.617-15.179,44.355-17.968,63.507-7.471.047,0,.094.048.142.048a3.554,3.554,0,0,1,1.276,4.87" transform="translate(4.821 2.698)" fill="#1c1a19"></path><path id="Path_53742" data-name="Path 53742" d="M334.087,231.1c-.02-.133-.061-.348-.1-.635-.266-1.65-.871-5.708-1.588-10.555-1.506-10.227-3.484-23.907-3.792-25.65-11.3-68.136-10.637-63.217-10.965-63.832-2.08-3.976-8.567-5.011-10.739-6.292-8.608-5.062-15.7-15.177-21.653-30.876l-.051-.471c-.851-6.343-11.446-.471-42.271-4.355a62.667,62.667,0,0,0-27.617.758A47.01,47.01,0,0,0,186.7,108.728a30.663,30.663,0,0,0-8.321-9.458c-12.481-9.458-27.525-9.172-41.994-8.516C86.261,93.264,87.491,92.034,85.6,93.879a4.012,4.012,0,0,0-2.787,1.886,16.531,16.531,0,0,0-4.253,3.6c-10.791,11.631-11.211,14.183-15.228,16.406A19.723,19.723,0,0,0,52.066,128.5L32.892,225.857l-.584,2.982c-.441,1.947-.9,3.884-1.322,5.851-.133.615-.266,1.24-.389,1.855a2.491,2.491,0,0,0,.574.184c.41,2.4,2.357,3.443,4.714,3.884,3,.574,6.692.164,8.762.328.236.02.461.041.7.051,3.689.277,7.378.4,11.067.41,2.357.01,4.7-.02,7.061-.082,5.431-.164,10.873-.512,16.314-.933,2.367-.184,4.745-.379,7.112-.584,19.7-1.681,39.391-3.679,58.892-.564,7.665,1.178,15.566,3.166,22.934.523a35.658,35.658,0,0,1,11.119-3.976,21.9,21.9,0,0,1,9.643,3.31c14.726,6.681,38.438-2.685,86.571-1.906q3.428.046,7.03.174c4.909.184,10.053.461,15.453.881,2.377.184,4.816.389,7.3.625,3.874.369,7.85.81,11.969,1.322h.01l.769.092a20.548,20.548,0,0,0,8.4-.42c6.692-1.957,7.317-7.788,7.1-8.762M311.256,133.65c1.086,9.407,3.494,18.159,14.51,89.7-5.626-6.517-16.642-21.089-27.238-31.911.236-1.609.717,4.632-10.258-76.231,11.16,16.837,20.188,16.406,22.985,18.446M189.444,118.514c5.862-14.756,21.837-23.026,36.122-24.02a127.825,127.825,0,0,1,22.463,1.7,264.332,264.332,0,0,0,30.548.615l12.481,90.977c-40.14.195-43.552-6.241-67.429-2.121-13.947,2.265-28.047,5.954-38.07,16.5ZM61.2,129.868c-.051,0-.051-.051,0-.246a17.266,17.266,0,0,1,.471-2.644,9.744,9.744,0,0,1,2.039-.943c8.27-3.074,14.469-12.389,19.716-19.583L60.96,196.59a5.121,5.121,0,0,0-.994,2.7L41.049,222.639c18.015-83.179,20-92.023,20.147-92.771m116.33,91.777a31.255,31.255,0,0,0-3.546.851A57.924,57.924,0,0,0,140.973,206.7a104.529,104.529,0,0,0-36.174,1.9,3.545,3.545,0,1,0,1.414,6.948,118.047,118.047,0,0,1,22.985-2.511c13.855,0,27.187,3.269,37.731,12.584-11.805,7.276-1.855.769-47.036,1.158-.933,0-1.875.01-2.849.031-1.455.021-2.972.051-4.54.082l-1.1.031c-.123,0-.246,0-.379.01l-1.373.031c-.133,0-.266.01-.41.01-.441.01-.881.031-1.332.041-2.808.082-5.769.195-8.905.318-1.312.061-2.654.113-4.027.184l-.656.031c-1.1.051-2.2.1-3.33.164-.307.02-.615.031-.933.041-.277.02-.564.031-.851.051-.154.01-.318.02-.482.02-.82.041-1.64.092-2.48.143-.523.031-1.055.061-1.588.082l-2.49.154c-.6.031-1.23.072-1.855.113-.881.051-1.773.1-2.685.164-.369.02-.738.051-1.117.072l-4,.246-4.027.246c-.123.01-.246.01-.369.02q-2.905.169-5.841.328-3.535.2-7.081.348c-.133.01-.256.01-.389.01-1.7.082-3.4.143-5.1.2h-.031q-2.751.092-5.5.154L54,217.956,65.859,203.3l.492-.615c3.6.564,28.232-9.694,71.21-8.178,19.767.656,32.587,5.247,39.965,24.112.041.143.092.236.143.379Zm.758-16.55c-10.073-14-23.313-17.113-40.529-17.687a240.342,240.342,0,0,0-69.14,7.716L92.41,99.741c51.4-2.172,55.511-2.746,64.119-1.609,11.58,1.609,23.17,7.706,26.008,18.866Zm137.952,21.95c-1.2-.113-2.408-.215-3.6-.318q-2.951-.261-5.851-.492-3.4-.277-6.743-.512c-1.117-.082-2.224-.164-3.33-.236-1.506-.1-3.013-.2-4.509-.3-1.158-.072-2.306-.133-3.453-.195-1.25-.072-2.5-.143-3.74-.195l-.635-.031q-3.274-.169-6.538-.277c-.123,0-.256,0-.379-.01-2.224-.082-4.447-.133-6.651-.174h-.225q-3.4-.061-6.763-.061a269.936,269.936,0,0,0-53.246,4.827c-9.551,1.886-7.563-.338-14.326-4.212a60.158,60.158,0,0,1,41.144-13.189c13.281.328,26.572,3.925,40.006.184A3.559,3.559,0,0,0,275.5,205c-11.774,3.31-24.779-.092-37.926-.43-17.216-.379-38.305,5.585-48.276,17.452a19.8,19.8,0,0,0-4.632-.707l.236-5.626a22.777,22.777,0,0,1,3.689-6.384c8.649-10.873,22.5-14.418,36.174-16.642a78.908,78.908,0,0,1,29.462.143,306.534,306.534,0,0,0,37.68,2.08q.753.738,1.506,1.506c.348.348.687.7,1.025,1.055.482.492.963.994,1.424,1.5.666.707,1.332,1.424,2,2.142.625.687,1.24,1.373,1.855,2.07,1.3,1.455,2.572,2.931,3.833,4.406.543.646,1.086,1.291,1.619,1.927,0,.01.01.01.01.02s.01.01.01.02l.061.061q1,1.168,1.937,2.336c.543.646,1.066,1.291,1.588,1.927,4.038,4.919,7.757,9.6,11.088,13.516-1.209-.113-2.418-.225-3.628-.328" transform="translate(0.757 2.16)" fill="#1c1a19"></path><path id="Path_53743" data-name="Path 53743" d="M292.308,190.757c.236-1.609.709,4.634-10.262-76.228,11.161,16.835,20.192,16.407,22.982,18.441,1.088,9.411,3.5,18.161,14.518,89.706-5.628-6.525-16.645-21.09-27.238-31.919" transform="translate(6.981 2.835)" fill="#fff"></path><path id="Path_53744" data-name="Path 53744" d="M274.833,96.634a263.422,263.422,0,0,1-30.548-.614,127.566,127.566,0,0,0-22.462-1.7c-14.281.993-30.263,9.268-36.127,24.022l-3.879,83.651c10.025-10.545,24.118-14.235,38.067-16.5,23.88-4.114,27.285,2.319,67.432,2.129ZM196.62,123.116c20.617-15.18,44.355-17.968,63.507-7.471.048,0,.1.048.142.048a3.554,3.554,0,0,1,1.276,4.87,3.489,3.489,0,0,1-4.822,1.277c-16.645-9.127-37.594-6.526-55.894,7a.17.17,0,0,0-.1.046,3.542,3.542,0,1,1-4.113-5.767m65.635,43.694a3.554,3.554,0,0,1-4.871,1.275c-16.646-9.125-37.547-6.525-55.894,7-.047,0-.047.046-.094.046a3.543,3.543,0,0,1-4.114-5.768c20.617-15.181,44.355-17.97,63.507-7.471.047,0,.094.046.141.046a3.613,3.613,0,0,1,1.325,4.872m.094-22.983a3.6,3.6,0,0,1-4.871,1.277c-16.645-9.127-37.546-6.525-55.894,7-.047,0-.047,0-.094.049a3.544,3.544,0,0,1-4.114-5.77c20.618-15.179,44.356-17.968,63.554-7.471a.168.168,0,0,0,.1.048,3.611,3.611,0,0,1,1.324,4.87" transform="translate(4.5 2.334)" fill="#fff"></path><path id="Path_53745" data-name="Path 53745" d="M316.137,224.854c-38.587-3.547-73.957-5.343-109.282,1.7-9.552,1.891-7.567-.333-14.328-4.21a60.187,60.187,0,0,1,41.14-13.193c13.288.33,26.576,3.925,40.006.189a3.558,3.558,0,0,0-1.892-6.855c-11.775,3.308-24.78-.1-37.925-.427-17.213-.379-38.3,5.581-48.28,17.448a19.464,19.464,0,0,0-4.634-.709l.236-5.627a23.213,23.213,0,0,1,3.688-6.384c8.654-10.875,22.51-14.421,36.176-16.645a79.09,79.09,0,0,1,29.46.143,304.643,304.643,0,0,0,37.688,2.08c10.687,10.545,20.334,23.549,27.947,32.485" transform="translate(4.479 4.674)" fill="#fff"></path><path id="Path_53746" data-name="Path 53746" d="M177.337,216.414l-.142,2.646a32.268,32.268,0,0,0-3.546.853,57.9,57.9,0,0,0-33.007-15.793,104.59,104.59,0,0,0-36.175,1.891,3.547,3.547,0,1,0,1.418,6.95,118.36,118.36,0,0,1,22.982-2.5c13.855,0,27.191,3.262,37.735,12.579-14.66,9.03,4.208-3.171-90.415,2.93-10.639.663-21.515,1.326-32.343,1.561L66.023,200.1c3.594.568,28.23-9.693,71.215-8.181,19.765.663,32.58,5.248,39.957,24.117.048.141.1.236.142.379" transform="translate(1.085 4.746)" fill="#fff"></path><path id="Path_53747" data-name="Path 53747" d="M83.168,105.991l-22.462,90.13a5.067,5.067,0,0,0-.993,2.7L40.8,222.175C58.815,139,60.8,130.155,60.943,129.4c-.047,0-.047-.048,0-.238a17.258,17.258,0,0,1,.473-2.646,9.9,9.9,0,0,1,2.033-.947c8.276-3.073,14.471-12.39,19.719-19.578" transform="translate(1.01 2.623)" fill="#fff"></path><path id="Path_53748" data-name="Path 53748" d="M155.608,97.884c-8.606-1.135-12.719-.568-64.121,1.608L67.7,194.87a240.145,240.145,0,0,1,69.135-7.708c17.213.569,30.454,3.688,40.525,17.685l4.256-88.1c-2.837-11.159-14.422-17.259-26.008-18.867m9.647,78.734a3.611,3.611,0,0,1-4.871,1.323,85.98,85.98,0,0,0-65.115-8.086,3.492,3.492,0,0,1-4.351-2.41V167.4a3.478,3.478,0,0,1,2.412-4.35,93.251,93.251,0,0,1,70.553,8.7l.047.048a3.543,3.543,0,0,1,1.324,4.824m4.918-21.894a3.542,3.542,0,0,1-4.965.755c-20.807-15.888-46.531-14.99-64.5-11.443h-.047a3.542,3.542,0,0,1-4.162-2.789,3.581,3.581,0,0,1,2.789-4.163c19.388-3.828,47.287-4.729,70.222,12.768a3.52,3.52,0,0,1,.662,4.872m5.344-27.333a3.493,3.493,0,0,1-4.918.757c-20.855-15.89-46.626-14.99-64.548-11.443a3.59,3.59,0,0,1-4.209-2.791,3.551,3.551,0,0,1,2.838-4.16c19.34-3.831,47.288-4.729,70.222,12.768a3.55,3.55,0,0,1,.615,4.87" transform="translate(1.676 2.409)" fill="#fff"></path><path id="Path_53749" data-name="Path 53749" d="M97.984,273.223a12.129,12.129,0,0,0,4.067,4.374,4.1,4.1,0,0,0,4.138-7.079c-.157-.106-.308-.213-.459-.326l.83.64a8.408,8.408,0,0,1-1.33-1.315l.64.829a8.474,8.474,0,0,1-.808-1.261,4.131,4.131,0,0,0-5.608-1.471,4.191,4.191,0,0,0-1.471,5.608" transform="translate(2.412 6.61)" fill="#1c1a19"></path><path id="Path_53750" data-name="Path 53750" d="M139.571,264.458A119.69,119.69,0,0,0,131.6,251.7c-3.491-4.977-9.681-7.28-14.734-5.45-1.464.529-2.892,1.139-4.325,1.726-4.866-9.956-7.216-24-13.305-31.537-4.417-6.495-7.761-9.8-8.924-16.417-.027-.36-.051-.729-.067-1.1-.206-3.864-.033-7.918-.039-11.964,0-8.892-.842-17.774-8.5-24.677a15.22,15.22,0,0,0-5.446-3.1c-6.525-2.021-13.31,1.5-14.344,12.229-.032.338-.055.688-.079,1.038-.2,3.58-.555,7.162-.9,10.766-.374,3.85-.754,7.731-.951,11.686a88.052,88.052,0,0,0,.318,14.5A161.255,161.255,0,0,1,49.18,192.472c-3.179-5.42-5.654-9.979-6.311-11.092-1.131-2.035-2.181-4.066-3.151-6.072-11.846-24.55-12.275-46.543-15.523-52.215a8.51,8.51,0,0,0-15.23.336C3.079,126.866,1.4,133.693.692,139.993c-5.373,47.94,20.638,99.59,74.954,129.889-3.44,3.018-7.063,6.062-10.557,9.091a4.179,4.179,0,0,0,.017,5.716c12.718,16.749,14.412,19.463,18.9,20.54l.19.046a4.418,4.418,0,0,0,.675,1.242c3.185,4.045,8.264,4.6,12.985,3.319,6.749-1.815,13.415-4.688,19.884-7.286q10.068-4.015,19.888-8.651c3.394-1.6,7.156-3.262,9.2-6.141a3.885,3.885,0,0,0,.364-.162c8.159-4.336-4.294-16.814-7.627-23.138M13.016,137.8c.4-6.869.851-12.934,4-12.191.83.187,1.366,1.226,1.736,2.43a27.21,27.21,0,0,1,.718,3.522c5.027,30.367,13.7,45.955,16.757,52.082.236.471.442.874.6,1.238.842,1.409,1.9,3.294,3.125,5.483,6.25,11.142,16.879,29.931,25.179,31.2a3.481,3.481,0,0,0,3.248-5.618c-.176-3.858-2.054-6.033-1.439-19.824.116-2.689.337-5.827.679-9.506.136-.84.246-1.654.34-2.439,1.492-11.845-.4-17.869,4.981-18.533,4.336-.16,8.443,6.538,9.515,11.689a38.377,38.377,0,0,1,.761,8.764c-.028,3.945-.313,8.041-.07,12.1a.037.037,0,0,1,.005.032c.422,7.96,3.4,12.5,8.062,18.966,10.016,13.92,8.351,19.938,14.929,33.622A107.66,107.66,0,0,0,84.488,264.57c-39.408-35.5-73.924-57.06-71.471-126.77M140.192,281.962c.133,3.309-9.188,6-11.75,7.157q-6.285,2.847-12.691,5.439c-4.525,1.846-9.1,3.608-13.7,5.251-2.278.816-6.077,2.849-8.866,2.433-5.669-6.824-11.258-13.016-16.9-19.73a99.292,99.292,0,0,1,42.942-29.679c6.387-2.384,10.546,10.3,18.546,21.61a53.783,53.783,0,0,1,3.3,4.913,3.5,3.5,0,0,0-.893,2.606" transform="translate(-5.584 2.934)" fill="#1c1a19"></path><path id="Path_53751" data-name="Path 53751" d="M105.831,250.648A107.624,107.624,0,0,0,84.177,264.4c-39.408-35.5-73.924-57.06-71.472-126.77.4-6.869.851-12.934,4-12.191.831.187,1.367,1.226,1.736,2.431a27.142,27.142,0,0,1,.718,3.522c5.027,30.366,13.7,45.954,16.758,52.081.235.471.441.875.6,1.238.842,1.409,1.9,3.294,3.125,5.483,6.249,11.142,16.878,29.931,25.179,31.2a3.48,3.48,0,0,0,3.247-5.617c-.176-3.859-2.053-6.034-1.439-19.825.116-2.689.337-5.827.679-9.506.136-.84.247-1.654.341-2.439,1.491-11.845-.4-17.869,4.981-18.533,4.335-.16,8.443,6.538,9.514,11.689a38.434,38.434,0,0,1,.762,8.764c-.028,3.945-.313,8.041-.07,12.1a.037.037,0,0,1,0,.032c.422,7.96,3.4,12.5,8.063,18.966,10.015,13.92,8.35,19.938,14.928,33.622" transform="translate(-5.273 3.103)" fill="#fff"></path><path id="Path_53752" data-name="Path 53752" d="M138.349,278.726c.133,3.309-9.188,6-11.75,7.157q-6.285,2.847-12.691,5.439c-4.525,1.846-9.1,3.608-13.7,5.251-2.278.816-6.077,2.849-8.866,2.433-5.669-6.824-11.258-13.016-16.9-19.73A99.292,99.292,0,0,1,117.391,249.6c6.387-2.384,10.546,10.3,18.546,21.61a53.783,53.783,0,0,1,3.3,4.913,3.5,3.5,0,0,0-.893,2.606" transform="translate(-3.742 6.171)" fill="#fff"></path><path id="Path_53753" data-name="Path 53753" d="M315.006,186.985l-.772.055h-.01a166.969,166.969,0,0,1-11.134,19.09,150.411,150.411,0,0,0-.87-18.126c-2.479.238-4.913.5-7.283.765.463,10.753.379,21.487.4,24.291a3.479,3.479,0,0,0,3.512,5.45c8.267-1.674,18.433-21.612,24.333-33.528a20.536,20.536,0,0,1-8.172,2m40.6-64.176.006-.023a15.62,15.62,0,0,0-5.34-4.972,8.513,8.513,0,0,0-15.253.4c-2.512,4.95-2.757,24.929-10.3,46.156a104.889,104.889,0,0,1-5.518,12.865c-1.465,2.9-3.15,6.293-4.968,9.806h-.01a166.969,166.969,0,0,1-11.134,19.09,150.411,150.411,0,0,0-.87-18.126c-.383-4.215-.88-8.586-1.452-12.588-.942-6.684-2.088-12.319-3.286-14.363a11.061,11.061,0,0,0-1.44-1.737l.008-.012a.032.032,0,0,1-.023-.006c0-.01-.012-.008-.013-.017a10.627,10.627,0,0,0-1.954-1.586c-6.052-3.844-14.816-.9-19.473,9.488a32.5,32.5,0,0,0-2.575,11.995c-.147,4.495.411,8.75.649,12.805a30.1,30.1,0,0,1-.655,9.612c-2.031,6.8-7.9,12.3-11.33,20.891-2.906,7.51-4.653,17.082-7.918,24.681-1.457-.524-2.918-1.067-4.4-1.522-5.128-1.59-11.21,1.021-14.451,6.142-7.176,11.295-5.143,10.09-10.984,19.27-4.145,6.495-6.621,10.655-5.6,14.164a5.063,5.063,0,0,0,.481,1.138c1.34,4.688,6.062,6.67,10.9,8.785,7.5,3.295,14.971,6.7,22.53,9.866,6.755,2.833,14.026,5.045,21.425,4.883a14.092,14.092,0,0,0,7.169-1.787c2.2-1.353,3.354-3.557,4.975-5.382,4.075-1.545,6.383-5.548,17.092-21.155a4.167,4.167,0,0,0-.262-5.7c-3.629-2.86-7.395-5.725-10.981-8.583,24.213-15.064,43.835-35.7,55.916-58.931,19-36.541,15.557-75.762,9.039-85.548M274.129,301.17a1.9,1.9,0,0,0-.195.288,6.924,6.924,0,0,1-1.742.273c-5.793.1-11.59-1.713-16.884-3.9-4.866-2.018-9.659-4.2-14.481-6.324-2.142-.934-15.406-5.165-15.266-7.581a4.136,4.136,0,0,0-.638-2.559c1.879-3.681,6.466-10.323,7.944-13.488a113.571,113.571,0,0,1,6.93-12.354c1.537-2.425,4.374-3.847,6.5-3.192a99.384,99.384,0,0,1,44.31,27.6c-5.465,7.177-11.1,14.032-16.482,21.236m73.234-163.385c2.221,26.339-4.791,52.859-16.869,71.652-11.719,19.14-31.973,37.637-48.722,52.769-.1.039-.167.1-.275.147a107.423,107.423,0,0,0-22.22-12.651c6.1-14.363,3.8-19.61,13.3-34.294a66.287,66.287,0,0,0,4.6-7.857,27.016,27.016,0,0,0,2.414-8.438,41.907,41.907,0,0,0,0-8.286,98.409,98.409,0,0,1-.483-12.7c.3-4.828,1.563-9.39,5.173-12.975,2.062-1.974,4.441-3,6.586-1.132,1.52,1.231,2.517,6.028,3.177,12.172.417,3.844.695,8.215.887,12.582.463,10.753.379,21.487.4,24.291a3.479,3.479,0,0,0,3.512,5.45c8.267-1.674,18.433-21.612,24.333-33.528.855-1.74,1.627-3.308,2.282-4.624,1.018-1.98,1.95-3.965,2.815-5.926,12.1-27.53,10.322-52.964,14.057-54.059,3.929-1.111,4.69,14.072,5.03,17.409m-32.357,49.2-.772.055h-.01a166.969,166.969,0,0,1-11.134,19.09,150.411,150.411,0,0,0-.87-18.126c-2.479.238-4.913.5-7.283.765.463,10.753.379,21.487.4,24.291a3.479,3.479,0,0,0,3.512,5.45c8.267-1.674,18.433-21.612,24.333-33.528a20.536,20.536,0,0,1-8.172,2" transform="translate(5.373 2.804)" fill="#1c1a19"></path><path id="Path_53754" data-name="Path 53754" d="M346.344,137.614c2.221,26.34-4.792,52.86-16.869,71.652-11.719,19.14-31.974,37.638-48.723,52.769-.1.04-.166.106-.274.147a107.418,107.418,0,0,0-22.22-12.65c6.1-14.364,3.8-19.61,13.3-34.294a66.434,66.434,0,0,0,4.6-7.858,27.046,27.046,0,0,0,2.414-8.437,41.829,41.829,0,0,0,0-8.286,98.426,98.426,0,0,1-.483-12.7c.3-4.827,1.563-9.39,5.173-12.975,2.062-1.973,4.44-3,6.586-1.131,1.52,1.231,2.517,6.028,3.176,12.172.418,3.844.695,8.214.888,12.581.463,10.754.379,21.487.4,24.291a3.479,3.479,0,0,0,3.512,5.45c8.267-1.674,18.433-21.612,24.333-33.527.854-1.74,1.626-3.308,2.281-4.624,1.019-1.98,1.951-3.965,2.816-5.927,12.1-27.53,10.322-52.963,14.056-54.059,3.93-1.111,4.691,14.073,5.032,17.41" transform="translate(6.392 2.974)" fill="#fff"></path><path id="Path_53755" data-name="Path 53755" d="M290.421,276.579c-5.464,7.177-11.1,14.032-16.481,21.236a1.906,1.906,0,0,0-.2.288,6.916,6.916,0,0,1-1.742.273c-5.793.1-11.59-1.713-16.884-3.9-4.866-2.017-9.658-4.2-14.481-6.323-2.142-.935-15.405-5.165-15.266-7.581a4.121,4.121,0,0,0-.638-2.559c1.88-3.681,6.466-10.324,7.944-13.489a113.834,113.834,0,0,1,6.931-12.353c1.537-2.425,4.373-3.847,6.5-3.192a99.376,99.376,0,0,1,44.31,27.6" transform="translate(5.562 6.159)" fill="#fff"></path><path id="Path_53756" data-name="Path 53756" d="M184.6,29.841A60.969,60.969,0,1,1,123.633,90.81,60.968,60.968,0,0,1,184.6,29.841" transform="translate(3.06 0.739)" fill="#1c1a19"></path><path id="Path_53757" data-name="Path 53757" d="M184.576,36.424a54.447,54.447,0,1,0,21.2,4.277,54.48,54.48,0,0,0-21.2-4.277m0-6.732a61.2,61.2,0,1,1-61.2,61.2A61.2,61.2,0,0,1,184.576,29.692Z" transform="translate(3.054 0.735)" fill="#1c1a19"></path><path id="Path_53758" data-name="Path 53758" d="M180.29,25.529A60.969,60.969,0,1,1,119.321,86.5,60.968,60.968,0,0,1,180.29,25.529" transform="translate(2.953 0.632)" fill="#fff"></path><path id="Path_53759" data-name="Path 53759" d="M180.264,32.112a54.447,54.447,0,1,0,21.2,4.277,54.48,54.48,0,0,0-21.2-4.277m0-6.732a61.2,61.2,0,1,1-61.2,61.2A61.2,61.2,0,0,1,180.264,25.38Z" transform="translate(2.947 0.628)" fill="#1c1a19"></path><path id="Path_53760" data-name="Path 53760" d="M200.687,85.6a85.762,85.762,0,0,1-15.532-23.13,111.1,111.1,0,0,1-4.593-11.362c-.04.284-.059.354-.059.423q0,15.213-.011,30.425c0,.508.219.641.629.788a4.962,4.962,0,0,1-1.591,9.644H179.5V130.1q2.438,0,4.877,0c1.863,0,3.723-.013,5.586.008.467.006.664-.09.6-.611a14.043,14.043,0,0,1-.051-1.762,83.213,83.213,0,0,1,2.846-20.02,131.49,131.49,0,0,1,7.4-21.029c.169-.379.328-.674-.074-1.092Z" transform="translate(4.443 1.265)" fill="#1c1a19"></path><path id="Path_53761" data-name="Path 53761" d="M173.673,78.569a4.887,4.887,0,0,1,3.205-5.539c.564-.195.66-.464.66-1q-.025-14.735-.013-29.469v-.984a1.14,1.14,0,0,0-.307.516c-1.013,2.888-2.121,5.738-3.372,8.531a87.82,87.82,0,0,1-16.27,24.994,1.092,1.092,0,0,0-.26,1.437,124.862,124.862,0,0,1,9.265,28.563,53.6,53.6,0,0,1,.979,13.956c-.055.694.138.8.77.8q5.129-.025,10.261-.012V82.648a4.938,4.938,0,0,1-4.915-4.079Z" transform="translate(3.89 1.029)" fill="#1c1a19"></path><path id="Path_53762" data-name="Path 53762" d="M224.456,23.271a3.547,3.547,0,1,0,3.093,6.384l12.6-6.115a3.547,3.547,0,1,0-3.093-6.384Z" transform="translate(5.506 0.416)" fill="#1c1a19"></path><path id="Path_53763" data-name="Path 53763" d="M213.342,4.551,208.5,15.711a3.551,3.551,0,1,0,6.511,2.838l4.838-11.155a3.547,3.547,0,1,0-6.5-2.837Z" transform="translate(5.153 0.06)" fill="#1c1a19"></path><path id="Path_53764" data-name="Path 53764" d="M194.25.138a3.546,3.546,0,0,0-2.411,4.4l2.8,9.651a3.548,3.548,0,0,0,6.815-1.977l-2.814-9.656a3.546,3.546,0,0,0-4.4-2.411Z" transform="translate(4.745 0)" fill="#1c1a19"></path></g></g></svg>